<?xml version="1.0" encoding="UTF-8" standalone="no"?>
<svg xmlns="http://www.w3.org/2000/svg" width="200" height="200" viewBox="0 0 200 200">
  <style>
    .logo-circle {
      fill: #000;
    }
    .logo-inner-circle {
      fill: #333;
    }
    .logo-text, .logo-car {
      fill: #ffc107; /* Default yellow color */
    }
    .logo-checkers {
      fill: #ffc107;
      opacity: 0.5;
    }
    @media (prefers-color-scheme: dark) {
      .logo-circle {
        fill: #222;
      }
      .logo-inner-circle {
        fill: #444;
      }
    }
  </style>
  
  <!-- Outer circle -->
  <circle class="logo-circle" cx="100" cy="100" r="95" />
  
  <!-- Inner circle -->
  <circle class="logo-inner-circle" cx="100" cy="100" r="85" />
  
  <!-- Car icon -->
  <path class="logo-car" d="M140,90 H60 L70,70 H130 L140,90 Z M145,95 C145,95 150,110 150,115 C150,120 145,120 145,120 H135 C135,120 130,120 130,115 C130,110 135,110 135,110 H140 C140,110 140,105 140,105 H60 C60,105 60,110 60,110 H65 C65,110 70,110 70,115 C70,120 65,120 65,120 H55 C55,120 50,120 50,115 C50,110 55,95 55,95 H145 Z" />
  
  <!-- CAB text -->
  <text class="logo-text" x="100" y="155" font-family="Arial, sans-serif" font-weight="bold" font-size="32" text-anchor="middle">CAB</text>
  
  <!-- Checkers pattern at bottom -->
  <rect class="logo-checkers" x="70" y="165" width="10" height="10" />
  <rect class="logo-checkers" x="90" y="165" width="10" height="10" />
  <rect class="logo-checkers" x="110" y="165" width="10" height="10" />
  <rect class="logo-checkers" x="130" y="165" width="10" height="10" />
  <rect class="logo-checkers" x="80" y="175" width="10" height="10" />
  <rect class="logo-checkers" x="100" y="175" width="10" height="10" />
  <rect class="logo-checkers" x="120" y="175" width="10" height="10" />
</svg> 