<?xml version="1.0" encoding="UTF-8" standalone="no"?>
<svg xmlns="http://www.w3.org/2000/svg" width="32" height="32" viewBox="0 0 32 32">
  <style>
    .logo-circle {
      fill: #000;
    }
    .logo-inner-circle {
      fill: #333;
    }
    .logo-text, .logo-car {
      fill: #ffc107; /* Default yellow color */
    }
  </style>
  
  <!-- Outer circle -->
  <circle class="logo-circle" cx="16" cy="16" r="15" />
  
  <!-- Inner circle -->
  <circle class="logo-inner-circle" cx="16" cy="16" r="13" />
  
  <!-- Car icon (simplified) -->
  <path class="logo-car" d="M22,14 H10 L11,11 H21 L22,14 Z M23,15 C23,15 24,17 24,18 C24,19 23,19 23,19 H21 C21,19 20,19 20,18 C20,17 21,17 21,17 H22 C22,17 22,16 22,16 H10 C10,16 10,17 10,17 H11 C11,17 12,17 12,18 C12,19 11,19 11,19 H9 C9,19 8,19 8,18 C8,17 9,15 9,15 H23 Z" />
  
  <!-- CAB text (simplified) -->
  <text class="logo-text" x="16" y="25" font-family="Arial, sans-serif" font-weight="bold" font-size="6" text-anchor="middle">CAB</text>
</svg> 